<?xml version="1.0" standalone="no"?>
<!DOCTYPE svg PUBLIC "-//W3C//DTD SVG 20010904//EN"
 "http://www.w3.org/TR/2001/REC-SVG-20010904/DTD/svg10.dtd">
<svg version="1.0" xmlns="http://www.w3.org/2000/svg"
 width="150pt" height="150pt" viewBox="0 0 314.000000 208.000000"
 preserveAspectRatio="xMidYMid meet">

<g transform="translate(0.000000,208.000000) scale(0.100000,-0.100000)"
fill="#000000" stroke="none">
<path d="M2216 1690 l-89 -190 -113 0 -113 0 -16 -30 -16 -30 111 0 c67 0 110
-4 110 -10 0 -9 -54 -127 -195 -425 -201 -424 -328 -692 -332 -702 -3 -9 5
-13 27 -13 30 0 33 4 80 103 156 330 404 857 445 945 l48 102 112 0 c111 0
112 0 124 26 6 15 10 28 8 31 -2 2 -50 4 -106 5 -55 0 -101 4 -101 9 0 7 137
305 161 352 8 15 5 17 -23 17 -33 -1 -33 -1 -122 -190z"/>
<path d="M1122 1473 l-84 -4 3 -121 c3 -82 0 -123 -7 -125 -6 -2 -33 5 -60 15
-156 61 -409 51 -555 -24 -94 -47 -146 -125 -132 -195 9 -46 68 -106 138 -139
157 -75 409 -79 571 -10 59 26 60 25 68 -10 l6 -31 102 3 103 3 -5 90 c-7 129
-6 239 4 408 l9 147 -39 -2 c-21 -1 -77 -4 -122 -5z m-183 -312 c122 -63 121
-156 -2 -214 -60 -29 -127 -43 -127 -27 0 5 11 10 25 10 37 0 46 55 19 124 -6
16 -5 17 14 7 12 -7 22 -17 22 -24 1 -7 11 -25 24 -40 l23 -29 26 32 c36 42
35 81 -3 118 -52 53 -191 82 -219 48 -10 -12 -3 -19 42 -41 50 -25 54 -29 55
-65 1 -21 -5 -55 -12 -76 -9 -24 -15 -31 -15 -19 -2 37 -49 150 -62 150 -8 0
-14 -7 -14 -15 0 -8 6 -14 13 -12 15 3 17 -114 2 -153 -9 -24 -13 -25 -47 -19
-159 28 -231 131 -147 210 52 50 109 64 234 61 85 -3 113 -8 149 -26z"/>
<path d="M635 1151 c-77 -34 -98 -107 -46 -153 l28 -25 27 33 c22 28 25 40 20
76 -4 31 -3 39 5 28 5 -8 8 -17 5 -21 -2 -4 1 -11 7 -15 6 -3 15 0 20 7 6 10
9 7 10 -11 1 -14 0 -32 -1 -39 -1 -12 1 -13 13 -3 13 11 13 19 1 68 -8 30 -12
59 -9 64 10 16 -37 11 -80 -9z"/>
<path d="M700 1000 c0 -5 -3 -15 -6 -24 -5 -12 0 -16 21 -16 21 0 26 4 23 22
-3 20 -38 37 -38 18z"/>
<path d="M1647 1168 c-9 -7 -23 -31 -30 -53 -23 -66 -59 -245 -53 -261 4 -11
17 -14 43 -12 l38 3 11 85 c12 90 33 143 62 158 56 29 55 -56 -2 -191 -9 -21
-14 -42 -11 -47 9 -15 62 -12 79 5 17 17 40 91 57 187 11 60 10 69 -5 94 -17
24 -22 26 -67 21 -39 -5 -49 -3 -49 8 0 19 -49 20 -73 3z"/>
<path d="M2345 1150 c-19 -37 -65 -225 -65 -267 0 -32 2 -33 39 -33 l40 0 6
48 c12 99 27 151 50 176 27 29 53 34 61 11 8 -20 -21 -137 -46 -186 -11 -21
-20 -41 -20 -44 0 -3 21 -5 48 -3 l47 3 23 80 c30 102 38 175 23 203 -14 27
-48 36 -84 23 -22 -9 -27 -8 -27 4 0 11 -11 15 -40 15 -34 0 -42 -4 -55 -30z"/>
<path d="M1425 1156 c-76 -34 -124 -115 -125 -209 0 -48 4 -62 24 -82 69 -69
216 -12 216 86 0 20 -2 19 -35 -10 -40 -35 -94 -42 -115 -15 -18 21 0 37 67
58 93 30 135 82 113 137 -20 46 -84 62 -145 35z m72 -73 c5 -13 -35 -36 -79
-47 -35 -8 -35 3 -3 38 26 28 74 34 82 9z"/>
<path d="M2115 1158 c-87 -48 -140 -181 -101 -256 48 -92 155 -81 229 25 24
33 31 55 35 112 4 68 4 71 -26 100 -25 25 -39 31 -74 31 -24 0 -52 -6 -63 -12z
m91 -94 c8 -32 -21 -111 -46 -124 -51 -27 -87 5 -77 67 15 92 104 133 123 57z"/>
<path d="M1092 785 c0 -16 2 -22 5 -12 2 9 2 23 0 30 -3 6 -5 -1 -5 -18z"/>
<path d="M1440 801 c0 -5 5 -13 10 -16 6 -3 10 -2 10 4 0 5 -4 13 -10 16 -5 3
-10 2 -10 -4z"/>
<path d="M1562 785 c0 -16 2 -22 5 -12 2 9 2 23 0 30 -3 6 -5 -1 -5 -18z"/>
<path d="M1905 800 c3 -5 8 -10 11 -10 2 0 4 5 4 10 0 6 -5 10 -11 10 -5 0 -7
-4 -4 -10z"/>
<path d="M812 775 c0 -16 2 -22 5 -12 2 9 2 23 0 30 -3 6 -5 -1 -5 -18z"/>
<path d="M1672 780 c0 -14 2 -19 5 -12 2 6 2 18 0 25 -3 6 -5 1 -5 -13z"/>
<path d="M2232 780 c0 -14 2 -19 5 -12 2 6 2 18 0 25 -3 6 -5 1 -5 -13z"/>
<path d="M842 765 c0 -16 2 -22 5 -12 2 9 2 23 0 30 -3 6 -5 -1 -5 -18z"/>
<path d="M902 765 c0 -16 2 -22 5 -12 2 9 2 23 0 30 -3 6 -5 -1 -5 -18z"/>
<path d="M1191 774 c0 -11 3 -14 6 -6 3 7 2 16 -1 19 -3 4 -6 -2 -5 -13z"/>
<path d="M1281 774 c0 -11 3 -14 6 -6 3 7 2 16 -1 19 -3 4 -6 -2 -5 -13z"/>
<path d="M1311 774 c0 -11 3 -14 6 -6 3 7 2 16 -1 19 -3 4 -6 -2 -5 -13z"/>
<path d="M1341 774 c0 -11 3 -14 6 -6 3 7 2 16 -1 19 -3 4 -6 -2 -5 -13z"/>
<path d="M1531 774 c0 -11 3 -14 6 -6 3 7 2 16 -1 19 -3 4 -6 -2 -5 -13z"/>
<path d="M1741 774 c0 -11 3 -14 6 -6 3 7 2 16 -1 19 -3 4 -6 -2 -5 -13z"/>
<path d="M2031 774 c0 -11 3 -14 6 -6 3 7 2 16 -1 19 -3 4 -6 -2 -5 -13z"/>
<path d="M2171 774 c0 -11 3 -14 6 -6 3 7 2 16 -1 19 -3 4 -6 -2 -5 -13z"/>
<path d="M307 715 c-28 -19 -44 -36 -38 -40 6 -3 11 -2 11 3 0 16 33 24 42 10
4 -7 6 -23 3 -34 -3 -12 1 -27 9 -33 12 -10 18 -2 35 45 17 43 19 59 10 70
-15 18 -15 18 -72 -21z m43 -3 c0 -13 -12 -22 -22 -16 -10 6 -1 24 13 24 5 0
9 -4 9 -8z"/>
<path d="M2750 675 c11 -28 8 -30 -22 -14 -12 7 -24 7 -29 2 -6 -6 6 -20 31
-37 40 -26 51 -50 28 -59 -10 -4 -10 -6 0 -6 7 -1 15 5 18 13 8 20 -15 126
-26 126 -6 0 -6 -10 0 -25z"/>
<path d="M383 636 c-19 -30 -20 -35 -6 -40 15 -6 42 18 43 38 0 4 9 6 20 3 11
-3 20 -1 20 4 0 5 -7 9 -15 9 -8 0 -15 5 -15 10 0 22 -26 8 -47 -24z"/>
<path d="M2626 652 c-7 -11 27 -73 46 -86 18 -11 48 -2 48 14 0 6 -5 8 -10 5
-17 -10 -50 37 -38 53 8 9 7 11 -6 6 -9 -3 -16 -1 -16 5 0 13 -17 15 -24 3z"/>
<path d="M2565 631 c-7 -12 12 -24 25 -16 11 7 4 25 -10 25 -5 0 -11 -4 -15
-9z"/>
<path d="M460 605 c-7 -8 -10 -25 -6 -38 6 -27 54 -54 68 -38 4 6 5 9 2 6 -11
-7 -44 15 -44 30 0 10 9 12 35 8 38 -6 45 5 19 31 -20 20 -58 21 -74 1z m60
-10 c0 -8 -4 -15 -9 -15 -13 0 -22 16 -14 24 11 11 23 6 23 -9z"/>
<path d="M2585 600 c-4 -6 3 -26 15 -46 17 -27 25 -32 36 -24 11 10 9 18 -9
46 -23 36 -32 41 -42 24z"/>
<path d="M570 571 c0 -5 7 -8 16 -7 9 0 19 -5 21 -11 3 -9 -7 -13 -30 -13 -37
0 -54 -19 -34 -39 6 -6 19 -11 28 -11 10 0 21 -4 24 -10 11 -18 21 -11 33 23
17 46 15 52 -13 65 -31 14 -45 15 -45 3z m30 -50 c0 -5 -7 -11 -15 -15 -9 -3
-15 0 -15 9 0 8 7 15 15 15 8 0 15 -4 15 -9z"/>
<path d="M2516 565 c-8 -8 -24 -15 -35 -15 l-21 0 20 -41 c19 -37 50 -50 41
-18 -12 43 -12 59 -2 59 7 0 17 -12 24 -28 8 -18 18 -26 29 -24 16 3 16 6 -2
43 -22 43 -31 47 -54 24z"/>
<path d="M730 536 c0 -10 -8 -34 -19 -56 l-19 -39 41 -16 c34 -14 42 -14 54
-2 12 12 9 13 -17 9 -24 -3 -30 -1 -30 14 0 11 4 25 9 33 8 12 12 12 25 2 13
-11 16 -11 16 3 0 9 -7 16 -15 16 -8 0 -15 5 -15 10 0 6 6 10 14 10 8 0 18 -4
21 -10 8 -12 25 -13 25 -1 0 5 -12 14 -27 19 -16 5 -36 13 -45 17 -13 5 -18 2
-18 -9z"/>
<path d="M2415 521 c-3 -5 -1 -12 5 -16 12 -8 13 -55 1 -55 -5 0 -14 14 -21
30 -7 17 -19 30 -26 30 -18 0 -18 -14 1 -50 15 -30 38 -39 50 -20 3 6 15 10
26 10 22 0 23 3 7 47 -12 32 -31 43 -43 24z"/>
<path d="M2306 487 c-11 -8 -27 -12 -37 -10 -9 3 -20 0 -23 -6 -4 -6 -18 -11
-31 -11 -23 0 -23 0 -8 -40 21 -52 47 -55 37 -5 -4 23 -2 35 5 35 6 0 14 -14
18 -31 4 -21 10 -28 20 -25 8 4 16 6 19 6 2 0 -1 12 -6 26 -13 33 -13 44 1 44
5 0 15 -13 20 -30 6 -16 18 -30 26 -30 10 0 13 6 9 16 -3 9 -6 21 -6 28 0 7
-6 20 -13 29 -11 15 -15 16 -31 4z"/>
<path d="M822 440 c-5 -22 -8 -40 -7 -40 2 0 10 -2 18 -6 10 -3 16 4 20 25 4
17 11 31 17 31 13 0 13 -12 0 -44 -8 -22 -7 -26 9 -26 12 0 23 11 30 30 13 38
34 40 25 3 -10 -44 -10 -47 6 -50 15 -4 18 4 23 57 2 20 -3 26 -23 28 -14 2
-30 8 -37 14 -7 5 -17 7 -22 4 -5 -4 -12 -2 -16 4 -13 22 -33 8 -43 -30z"/>
<path d="M2140 440 c-8 -5 -22 -7 -32 -4 -9 2 -19 0 -23 -6 -3 -5 -17 -10 -31
-10 -22 0 -24 -3 -19 -22 4 -13 9 -31 11 -40 3 -10 12 -18 19 -18 10 0 12 9 8
35 -7 44 15 49 24 5 3 -20 12 -30 23 -30 15 0 17 6 13 40 -7 50 12 54 21 5 7
-35 22 -46 31 -22 6 16 -9 70 -21 74 -5 1 -16 -2 -24 -7z"/>
<path d="M990 418 c0 -13 -3 -33 -6 -45 -5 -17 -2 -23 9 -23 9 0 18 13 22 30
4 17 13 30 21 30 17 0 16 3 5 -38 -8 -27 -7 -32 7 -32 24 0 44 66 26 81 -8 6
-20 9 -29 6 -8 -4 -17 -2 -20 3 -12 19 -35 10 -35 -12z"/>
<path d="M1800 417 c-33 -16 -39 -66 -11 -91 23 -21 92 -19 99 4 4 12 2 13 -9
3 -21 -20 -47 -15 -65 12 -20 31 -10 65 20 65 12 0 27 -5 33 -11 9 -9 10 -7 6
10 -6 24 -35 27 -73 8z"/>
<path d="M1100 391 c0 -16 -3 -36 -6 -45 -4 -12 0 -16 15 -16 18 0 21 6 21 45
0 33 -4 45 -15 45 -10 0 -15 -10 -15 -29z"/>
<path d="M1165 400 c-3 -5 2 -9 12 -7 25 3 29 -17 4 -21 -42 -7 -52 -52 -11
-52 13 0 17 5 13 20 -3 12 0 20 7 20 7 0 10 -7 6 -15 -4 -13 20 -35 38 -35 3
0 6 20 6 44 0 31 -5 46 -16 50 -24 9 -52 7 -59 -4z"/>
<path d="M1926 394 c-9 -8 -16 -22 -16 -29 0 -19 28 -45 48 -45 26 0 62 29 62
49 0 40 -63 57 -94 25z m60 -19 c7 -30 1 -40 -21 -32 -20 8 -20 57 0 57 8 0
17 -11 21 -25z"/>
<path d="M1265 359 c-9 -39 3 -50 52 -54 l39 -3 3 44 c3 55 -23 62 -33 9 -4
-19 -11 -35 -16 -35 -6 0 -10 16 -10 35 0 45 -26 48 -35 4z"/>
<path d="M1390 375 c-10 -12 -10 -18 0 -30 7 -8 19 -15 26 -15 8 0 14 -5 14
-11 0 -7 -10 -9 -25 -7 -14 3 -25 1 -25 -4 0 -5 17 -8 37 -6 47 4 57 32 19 49
-34 16 -33 33 2 25 20 -5 23 -4 12 4 -22 14 -46 12 -60 -5z"/>
</g>
</svg>
